<?xml version="1.0" encoding="UTF-8"?>
<!DOCTYPE svg PUBLIC "-//W3C//DTD SVG 1.1//EN" "http://www.w3.org/Graphics/SVG/1.1/DTD/svg11.dtd">
<!-- Creator: CorelDRAW 2017 -->
<svg xmlns="http://www.w3.org/2000/svg" xml:space="preserve" width="9.5998cm" height="2cm" version="1.1" style="shape-rendering:geometricPrecision; text-rendering:geometricPrecision; image-rendering:optimizeQuality; fill-rule:evenodd; clip-rule:evenodd"
viewBox="0 0 34304 7147"
 xmlns:xlink="http://www.w3.org/1999/xlink">
 <defs>
  <style type="text/css">
   <![CDATA[
    .fil0 {fill:black}
    .fil1 {fill:#E11D48}
    .fil3 {fill:#FEFEFE;fill-rule:nonzero}
    .fil2 {fill:black;fill-rule:nonzero}
   ]]>
  </style>
 </defs>
 <g id="Layer_x0020_1">
  <metadata id="CorelCorpID_0Corel-Layer"/>
  <path class="fil0" d="M3757 1183l-732 0c-242,0 -398,96 -495,313l-2529 5650 686 1c323,0 425,-55 519,-263l2552 -5700z"/>
  <path class="fil0" d="M4819 0l0 1644c5,144 0,273 0,347l0 668 -1570 754c223,201 623,397 999,216l571 -274 0 1280c62,1519 337,2512 1776,2512 874,0 1333,-613 1337,-1563l10 -1493c541,-331 507,-274 634,-517 -117,0 -236,56 -622,231l6 -234c9,-461 -200,-645 -507,-651 -139,0 -355,64 -536,197 -870,642 -424,1537 442,1223l-39 1244c-14,455 -160,882 -725,887 -811,7 -799,-1355 -799,-1837l0 -1748 1544 -741c-223,-201 -623,-397 -999,-216l-545 262 0 -199c0,-719 -27,-1773 -976,-1991zm2573 3455l-7 575c-1296,347 -20,-878 7,-575z"/>
  <path class="fil1" d="M2848 784l687 0c358,0 448,-107 542,-318l205 -458 -732 0c-242,0 -398,96 -495,313l-207 463z"/>
  <polygon class="fil0" points="20954,115 34304,115 34304,4651 20954,4651 "/>
  <path class="fil2" d="M11119 6606l-559 0c-10,-17 -20,-39 -28,-65 -8,-26 -13,-55 -13,-85 0,-54 13,-94 38,-118 25,-25 59,-37 102,-37l559 0c8,15 17,36 27,64 9,27 14,55 14,84 0,54 -13,94 -39,119 -26,25 -60,38 -100,38z"/>
  <path class="fil2" d="M12154 6029l386 0 0 1072c-15,5 -40,10 -74,14 -34,4 -69,6 -104,6 -76,0 -130,-14 -161,-41 -31,-27 -47,-75 -47,-142l0 -910zm386 488l-386 0 0 -958c17,-3 43,-8 77,-13 35,-5 69,-8 103,-8 73,0 125,13 158,38 32,25 48,74 48,145l0 795zm1484 -183c0,163 -40,285 -121,368 -80,83 -188,124 -321,124 -29,0 -59,-1 -91,-4 -32,-3 -61,-6 -86,-11l0 -963c29,-3 57,-6 85,-9 28,-3 57,-4 88,-4 88,0 166,18 232,55 67,36 119,91 158,164 38,73 57,166 57,280zm399 -8c0,-181 -36,-331 -109,-450 -73,-119 -174,-207 -304,-266 -130,-58 -282,-88 -456,-88 -64,0 -136,3 -213,10 -78,7 -151,21 -219,43 -30,12 -55,27 -74,44 -19,18 -28,44 -28,78l0 1215c0,81 44,138 132,170 66,24 140,39 221,47 81,8 150,11 206,11 169,0 317,-30 443,-90 126,-60 224,-150 295,-271 70,-120 105,-272 105,-455zm399 -300l376 0 0 1062c-15,3 -39,8 -70,13 -31,5 -65,8 -100,8 -63,0 -113,-19 -150,-56 -37,-37 -56,-87 -56,-150l0 -877zm376 615l-376 0 0 -872c0,-64 19,-115 56,-151 37,-36 87,-55 150,-55 36,0 69,3 100,8 31,5 55,9 70,13l0 1057zm-170 -170l0 -305 767 0c10,17 19,38 28,63 8,25 13,53 13,84 0,54 -12,94 -37,119 -25,25 -57,38 -98,38l-673 0zm0 638l0 -307 851 0c10,15 19,36 28,64 8,27 13,56 13,86 0,54 -12,94 -37,119 -25,25 -57,38 -98,38l-757 0zm0 -1240l0 -305 839 0c12,15 22,36 29,61 8,25 11,53 11,84 0,54 -12,94 -36,121 -24,26 -57,39 -99,39l-745 0zm1947 15l-15 0c-17,54 -37,114 -60,180 -23,66 -46,135 -70,207 -24,72 -47,144 -69,215l-46 229c-10,32 -20,66 -29,102 -9,36 -19,70 -29,104 -10,34 -19,66 -28,97 -8,31 -17,59 -25,86 -19,5 -40,11 -64,17 -24,6 -52,9 -84,9 -71,0 -125,-13 -163,-38 -37,-25 -56,-63 -56,-112 0,-20 3,-42 9,-64 6,-22 13,-47 22,-76 15,-56 37,-126 65,-211 28,-85 58,-177 91,-276 33,-99 67,-197 102,-293 35,-97 67,-185 97,-267 30,-81 54,-145 72,-191 24,-15 61,-29 113,-42 52,-13 103,-19 154,-19 73,0 138,11 196,32 58,21 94,55 109,100 32,90 67,194 105,311 38,118 77,241 116,370 39,129 77,254 113,375 36,121 68,230 95,327 -19,20 -46,38 -81,52 -36,14 -78,22 -127,22 -69,0 -119,-13 -147,-38 -29,-25 -51,-63 -66,-114l-81 -285 -43 -216c-20,-76 -41,-150 -64,-221 -22,-71 -42,-138 -61,-202 -19,-63 -36,-120 -51,-169zm-429 877l150 -300 595 0 51 300 -795 0z"/>
  <path class="fil2" d="M19703 5918c-107,0 -204,36 -292,108 -88,72 -146,176 -175,311 -28,134 -15,236 40,307 55,71 139,107 251,107 66,0 124,-9 173,-27 49,-18 94,-38 132,-60 19,14 34,30 43,48 10,19 12,41 6,66 -11,52 -55,96 -132,131 -77,35 -170,52 -280,52 -124,0 -228,-23 -313,-69 -85,-46 -145,-115 -178,-208 -34,-93 -36,-209 -6,-348 30,-141 82,-257 158,-351 76,-93 166,-163 271,-211 105,-47 214,-71 328,-71 108,0 193,19 253,57 61,38 85,83 75,133 -5,24 -16,45 -33,64 -17,19 -36,34 -57,46 -31,-24 -66,-44 -107,-61 -40,-17 -93,-25 -157,-25zm1775 417c-27,127 -75,238 -144,333 -69,95 -154,168 -255,220 -101,52 -212,77 -334,77 -122,0 -222,-26 -301,-77 -79,-52 -133,-125 -162,-219 -29,-94 -30,-205 -3,-334 27,-129 76,-240 146,-334 70,-94 156,-167 257,-219 102,-52 212,-78 330,-78 120,0 220,26 299,78 79,52 133,124 163,219 30,94 32,205 4,334zm-511 -419c-102,0 -190,37 -266,112 -76,75 -128,177 -155,307 -28,132 -20,235 22,309 43,74 117,111 222,111 105,0 195,-37 269,-112 74,-75 125,-177 153,-307 28,-130 20,-233 -24,-307 -44,-75 -117,-112 -220,-112zm1965 191l-62 292 -259 0 56 -264c16,-76 6,-132 -31,-166 -37,-35 -90,-52 -159,-52 -47,0 -94,8 -141,23 -46,15 -86,32 -119,51l-87 409 -262 0 88 -414c8,-37 23,-69 44,-94 21,-25 52,-49 93,-71 54,-32 121,-59 200,-81 79,-22 157,-33 233,-33 85,0 158,13 220,39 62,26 108,63 137,111 10,10 18,20 24,29 7,9 12,21 16,34 9,24 14,52 17,84 3,32 0,67 -8,104zm736 15l-59 277 -259 0 56 -264c16,-76 7,-132 -28,-166 -35,-35 -88,-52 -159,-52 -53,0 -105,11 -158,33 -53,22 -102,52 -147,89l-86 -170c58,-44 127,-82 205,-114 78,-32 164,-48 259,-48 90,0 167,15 231,44 64,30 109,75 136,137 27,62 30,140 10,235zm-1772 147l262 0 -139 656c-13,3 -30,8 -52,13 -22,5 -46,8 -72,8 -47,0 -81,-9 -101,-28 -20,-19 -25,-49 -16,-91l118 -556zm742 0l259 0 -139 656c-11,3 -28,8 -51,13 -23,5 -47,8 -73,8 -47,0 -81,-9 -100,-28 -19,-19 -24,-49 -15,-91l118 -556zm739 0l259 0 -139 656c-11,3 -28,8 -51,13 -23,5 -47,8 -70,8 -49,0 -83,-9 -102,-28 -19,-19 -24,-49 -15,-91l118 -556zm794 211l28 -191 743 -102c12,-80 -2,-146 -42,-199 -40,-53 -106,-80 -199,-80 -95,0 -181,34 -258,102 -77,68 -130,164 -158,290l-15 97c-12,120 12,210 72,271 60,60 150,90 268,90 71,0 139,-11 203,-33 64,-22 116,-46 157,-71 18,12 31,28 39,48 8,20 10,42 5,66 -8,37 -34,71 -77,102 -44,31 -99,54 -166,71 -67,17 -141,25 -220,25 -130,0 -240,-24 -328,-72 -88,-48 -149,-120 -183,-216 -34,-96 -36,-213 -7,-352 21,-100 55,-188 101,-266 46,-77 101,-142 164,-194 64,-52 134,-92 211,-119 77,-27 156,-41 237,-41 107,0 196,22 269,67 73,45 123,107 152,187 29,80 33,170 11,272 -9,42 -26,73 -50,93 -24,19 -56,32 -94,37l-864 119z"/>
  <path class="fil2" d="M26913 5874l-3 -310 785 0c10,15 19,36 28,64 8,27 13,56 13,86 0,54 -12,94 -37,121 -25,26 -58,39 -100,39l-686 0zm358 -310l3 310 -785 0c-12,-15 -22,-36 -29,-63 -8,-27 -11,-56 -11,-86 0,-56 12,-97 37,-122 25,-25 57,-38 98,-38l689 0zm-379 241l389 0 0 1296c-17,5 -42,10 -76,14 -34,4 -69,6 -104,6 -76,0 -130,-14 -161,-41 -31,-27 -47,-75 -47,-142l0 -1133zm1578 480l165 0c85,0 153,-19 205,-57 52,-38 78,-94 78,-169 0,-73 -25,-128 -74,-166 -49,-38 -124,-57 -226,-57 -29,0 -55,1 -79,3 -24,2 -47,5 -69,10l0 437zm201 300l-584 0 0 -887c0,-32 9,-58 28,-76 19,-19 43,-33 74,-43 56,-20 122,-35 197,-43 75,-8 154,-13 235,-13 229,0 401,48 516,144 115,96 173,226 173,390 0,102 -28,193 -83,273 -55,80 -130,143 -226,188 -96,45 -205,67 -329,67zm-71 -91l346 -81c39,54 79,108 121,160 42,52 81,103 119,152 38,49 72,94 103,136 30,42 55,77 74,105 -15,51 -42,90 -81,118 -39,28 -83,42 -132,42 -63,0 -111,-14 -144,-42 -33,-28 -64,-65 -93,-111l-313 -480zm-513 -53l386 0 0 661c-15,5 -40,10 -74,14 -34,4 -69,6 -104,6 -76,0 -130,-14 -161,-41 -31,-27 -47,-75 -47,-142l0 -498zm2285 706c-139,0 -258,-25 -357,-75 -99,-50 -175,-120 -229,-210 -53,-90 -80,-195 -80,-315l0 -168 389 0 0 158c0,93 26,166 77,217 52,52 118,78 199,78 81,0 148,-26 199,-78 52,-52 78,-124 78,-217l0 -158 389 0 0 168c0,120 -26,225 -79,315 -53,90 -129,160 -229,210 -100,50 -219,75 -358,75zm-277 -691l-389 0 0 -897c19,-3 45,-8 79,-13 34,-5 68,-8 102,-8 73,0 126,13 159,38 33,25 50,74 50,145l0 734zm943 5l-389 0 0 -902c19,-3 45,-8 80,-13 35,-5 68,-8 100,-8 73,0 126,13 159,38 33,25 50,74 50,145l0 739zm471 -434l376 0 0 1062c-15,3 -39,8 -70,13 -31,5 -65,8 -100,8 -63,0 -113,-19 -150,-56 -37,-37 -56,-87 -56,-150l0 -877zm376 615l-376 0 0 -872c0,-64 19,-115 56,-151 37,-36 87,-55 150,-55 36,0 69,3 100,8 31,5 55,9 70,13l0 1057zm-170 -170l0 -305 767 0c10,17 19,38 28,63 8,25 13,53 13,84 0,54 -12,94 -37,119 -25,25 -57,38 -98,38l-673 0zm0 638l0 -307 851 0c10,15 19,36 28,64 8,27 13,56 13,86 0,54 -12,94 -37,119 -25,25 -57,38 -98,38l-757 0zm0 -1240l0 -305 839 0c12,15 22,36 29,61 8,25 11,53 11,84 0,54 -12,94 -36,121 -24,26 -57,39 -99,39l-745 0z"/>
  <path class="fil2" d="M34027 6606l-559 0c-10,-17 -20,-39 -28,-65 -8,-26 -13,-55 -13,-85 0,-54 13,-94 38,-118 25,-25 59,-37 102,-37l559 0c8,15 17,36 27,64 9,27 14,55 14,84 0,54 -13,94 -39,119 -26,25 -60,38 -100,38z"/>
  <path class="fil0" d="M9680 38c-30,-25 -78,-38 -146,-38 -31,0 -63,3 -95,8l-72 13 0 469 0 6055 0 421c0,68 15,115 43,142 29,27 79,41 149,41 33,0 65,-2 96,-6 31,-4 54,-9 68,-14l0 -583 0 -6055 0 -307c0,-71 -15,-119 -45,-144z"/>
  <path class="fil0" d="M12006 3893c73,0 153,-8 240,-22 88,-15 153,-35 195,-61l0 -513 -461 38c-120,9 -218,34 -295,77 -77,43 -115,107 -115,192 0,85 33,155 99,208 66,53 178,80 336,80zm4285 -2351l-257 0c-111,0 -200,33 -266,99 -65,65 -98,171 -99,317l0 7 0 4c0,84 12,162 35,233 23,73 48,130 74,173l514 0 0 519 0 154 0 545c0,384 101,662 304,833 203,171 492,256 868,256 307,0 522,-52 644,-157 122,-105 183,-236 183,-394 0,-81 -14,-152 -42,-211 -28,-60 -61,-111 -99,-154 -51,17 -111,31 -179,42 -68,11 -135,16 -199,16 -128,0 -227,-25 -298,-74 -70,-49 -106,-127 -106,-234l0 -468 0 -154 0 -519 583 0c111,0 200,-33 266,-99 66,-66 99,-174 99,-324 0,-85 -12,-164 -35,-237 -23,-73 -48,-130 -74,-173l-839 0 0 -346c0,-196 -47,-331 -141,-404 -94,-73 -246,-109 -455,-109 -98,0 -191,7 -279,22 -88,15 -155,29 -202,42l0 795zm-4336 -167c466,0 838,95 1118,285 280,190 420,486 420,887l0 1435c0,111 -31,202 -93,272 -62,70 -136,131 -221,183 -137,81 -303,143 -500,186 -196,43 -421,64 -673,64 -448,0 -808,-86 -1079,-259 -271,-173 -407,-435 -407,-785 0,-295 89,-521 266,-679 177,-158 447,-256 811,-295l839 -90 0 -45c0,-124 -55,-213 -163,-266 -109,-53 -266,-80 -471,-80 -158,0 -315,17 -471,51 -156,34 -296,77 -420,128 -55,-38 -103,-97 -141,-176 -38,-79 -58,-161 -58,-247 0,-205 109,-350 327,-436 124,-47 270,-81 439,-103 169,-21 328,-32 477,-32zm3319 1518l0 570 0 1115c-47,13 -114,26 -202,38 -87,13 -183,19 -285,19 -209,0 -362,-36 -458,-109 -96,-73 -144,-207 -144,-404l0 -660 0 -570 0 -1377c47,-13 114,-26 202,-38 88,-13 183,-19 285,-19 214,0 367,35 461,106 94,70 141,206 141,407l0 923zm3523 -2287c0,-162 56,-299 167,-410 111,-111 254,-167 429,-167 175,0 318,55 429,167 111,111 167,248 167,410 0,158 -56,294 -167,407 -111,113 -254,170 -429,170 -175,0 -318,-57 -429,-170 -111,-113 -167,-249 -167,-407zm1140 2287l0 570 0 1115c-47,13 -114,26 -202,38 -88,13 -183,19 -285,19 -209,0 -362,-36 -458,-109 -96,-73 -144,-207 -144,-404l0 -660 0 -570 0 -1377c47,-13 114,-26 202,-38 88,-13 183,-19 285,-19 214,0 367,35 461,106 94,70 141,206 141,407l0 923z"/>
  <path class="fil1" d="M14299 1013c111,113 254,170 429,170 175,0 318,-57 429,-170 111,-113 167,-249 167,-407 0,-162 -55,-299 -167,-410 -111,-111 -254,-167 -429,-167 -175,0 -318,55 -429,167 -111,111 -167,248 -167,410 0,158 56,294 167,407z"/>
  <path class="fil3" d="M22529 3024c117,0 202,-21 253,-64 51,-42 77,-93 77,-152 0,-54 -20,-98 -60,-132 -40,-34 -100,-63 -178,-86l-173 -55c-117,-39 -221,-83 -312,-131 -90,-48 -160,-110 -209,-186 -49,-76 -73,-173 -73,-290 0,-181 69,-324 206,-431 137,-107 327,-160 571,-160 124,0 234,12 331,36 97,24 173,59 228,106 55,47 83,104 83,171 0,50 -11,93 -34,129 -23,36 -52,67 -86,93 -50,-35 -116,-65 -199,-90 -83,-25 -174,-38 -274,-38 -104,0 -183,17 -235,51 -52,34 -78,78 -78,132 0,43 17,79 52,106 35,27 87,52 157,73l179 55c198,61 350,142 457,243 107,101 160,237 160,406 0,183 -71,331 -212,445 -141,114 -346,171 -613,171 -133,0 -251,-14 -356,-42 -104,-28 -188,-70 -250,-124 -62,-54 -93,-117 -93,-189 0,-57 17,-105 51,-145 34,-40 71,-70 113,-90 59,48 132,91 220,129 88,38 188,57 299,57zm1720 -1230l-3 -398 1008 0c13,20 25,47 36,82 11,35 16,72 16,111 0,70 -16,121 -47,155 -32,34 -75,51 -129,51l-881 0zm460 -398l3 398 -1008 0c-15,-20 -28,-47 -38,-82 -10,-35 -15,-72 -15,-111 0,-72 16,-124 47,-157 32,-33 73,-49 126,-49l884 0zm-486 310l499 0 0 1664c-22,7 -54,13 -98,18 -43,5 -88,8 -134,8 -98,0 -167,-17 -207,-52 -40,-35 -60,-96 -60,-183l0 -1455zm2379 1723c-178,0 -331,-32 -458,-96 -127,-64 -225,-154 -294,-269 -69,-115 -103,-250 -103,-405l0 -215 499 0 0 202c0,120 33,213 100,279 66,66 152,100 256,100 104,0 190,-33 256,-100 66,-66 100,-159 100,-279l0 -202 499 0 0 215c0,154 -34,289 -101,405 -67,115 -165,205 -294,269 -128,64 -282,96 -460,96zm-356 -887l-499 0 0 -1152c24,-4 58,-10 101,-16 43,-7 87,-10 131,-10 94,0 162,16 204,49 42,33 64,95 64,186l0 943zm1210 7l-499 0 0 -1158c24,-4 58,-10 103,-16 45,-7 88,-10 129,-10 94,0 161,16 204,49 42,33 64,95 64,186l0 949zm1893 -163c0,209 -52,367 -155,473 -103,107 -241,160 -413,160 -37,0 -76,-2 -117,-5 -41,-3 -78,-8 -111,-15l0 -1237c37,-4 73,-8 109,-11 36,-3 73,-5 113,-5 113,0 213,23 299,70 86,47 153,117 202,210 49,94 73,213 73,359zm512 -10c0,-233 -47,-425 -140,-577 -94,-152 -224,-266 -390,-341 -166,-75 -362,-113 -586,-113 -83,0 -174,4 -274,13 -100,9 -194,27 -281,55 -39,15 -71,34 -95,57 -24,23 -36,56 -36,99l0 1560c0,104 57,177 170,219 85,30 179,51 284,60 104,10 193,15 264,15 218,0 407,-39 569,-116 162,-77 288,-193 378,-347 90,-154 135,-349 135,-584zm513 -382l496 0 0 1377c-20,7 -51,13 -95,18 -44,5 -88,8 -134,8 -98,0 -167,-17 -207,-52 -40,-35 -60,-96 -60,-183l0 -1168zm496 626l-496 0 0 -1230c22,-4 55,-10 99,-16 45,-7 89,-10 132,-10 94,0 161,16 202,49 41,33 62,95 62,186l0 1021zm2539 -238c0,226 -44,417 -132,573 -88,156 -209,274 -362,354 -153,80 -327,121 -520,121 -194,0 -367,-40 -519,-121 -152,-80 -272,-198 -359,-354 -87,-156 -131,-346 -131,-573 0,-226 45,-417 134,-573 89,-156 210,-273 362,-352 152,-79 323,-119 512,-119 191,0 364,40 517,119 153,79 275,197 364,352 89,156 134,346 134,573zm-512 0c0,-209 -45,-368 -135,-476 -90,-109 -213,-163 -367,-163 -148,0 -268,54 -359,162 -91,108 -137,267 -137,478 0,213 45,374 135,481 90,108 212,162 364,162 152,0 274,-54 364,-162 90,-108 135,-268 135,-481z"/>
 </g>
</svg>
