<?xml version="1.0" encoding="UTF-8"?>
<!DOCTYPE svg PUBLIC "-//W3C//DTD SVG 1.1//EN" "http://www.w3.org/Graphics/SVG/1.1/DTD/svg11.dtd">
<!-- Creator: CorelDRAW 2017 -->
<svg xmlns="http://www.w3.org/2000/svg" xml:space="preserve" width="9.5998cm" height="2cm" version="1.1" style="shape-rendering:geometricPrecision; text-rendering:geometricPrecision; image-rendering:optimizeQuality; fill-rule:evenodd; clip-rule:evenodd"
viewBox="0 0 31914 6649"
 xmlns:xlink="http://www.w3.org/1999/xlink">
 <defs>
  <style type="text/css">
   <![CDATA[
    .fil1 {fill:#FEFEFE}
    .fil2 {fill:black}
    .fil0 {fill:#E11D48}
   ]]>
  </style>
 </defs>
 <g id="Layer_x0020_1">
  <metadata id="CorelCorpID_0Corel-Layer"/>
  <path class="fil0" d="M2650 729l639 0c333,0 417,-100 504,-296l191 -426 -681 0c-225,0 -370,89 -461,291l-193 431zm10653 214c103,105 236,158 399,158 163,0 296,-53 399,-158 103,-105 155,-231 155,-378 0,-151 -52,-278 -155,-381 -103,-103 -236,-155 -399,-155 -163,0 -296,52 -399,155 -103,103 -155,230 -155,381 0,147 52,273 155,378z"/>
  <path class="fil1" d="M19493 107l12420 0 0 4220 -12420 0 0 -4220zm-15999 993l-681 0c-225,0 -370,89 -461,291l-2353 5256 638 1c301,0 396,-51 483,-245l2374 -5303zm989 -1100l0 1530c4,134 0,254 0,323l0 621 -1460 701c207,187 579,369 929,201l531 -255 0 1190c58,1413 313,2337 1652,2337 813,0 1240,-570 1244,-1454l9 -1389c504,-308 472,-255 590,-481 -109,0 -219,52 -579,215l6 -217c8,-429 -186,-600 -472,-605 -130,0 -331,60 -498,183 -810,597 -394,1429 411,1138l-37 1157c-13,423 -149,821 -674,825 -755,7 -744,-1260 -744,-1709l0 -1627 1436 -690c-207,-187 -579,-369 -929,-201l-507 243 0 -185c0,-669 -25,-1649 -908,-1852zm2394 3214l-6 535c-1206,323 -19,-817 6,-535zm4292 408c68,0 142,-7 224,-21 81,-14 142,-33 182,-57l0 -477 -429 36c-111,8 -203,32 -274,72 -71,40 -107,99 -107,179 0,80 31,144 92,194 61,50 166,75 313,75zm3987 -2187l-239 0c-103,0 -186,31 -247,92 -61,61 -91,159 -92,295l0 7 0 4c0,78 11,150 33,217 22,67 45,121 69,161l478 0 0 483 0 143 0 507c0,358 94,616 283,775 189,159 458,238 808,238 286,0 486,-49 599,-146 113,-97 170,-220 170,-367 0,-76 -13,-141 -39,-197 -26,-56 -57,-103 -92,-143 -48,16 -103,29 -167,39 -64,10 -125,15 -185,15 -119,0 -212,-23 -277,-69 -66,-46 -98,-118 -98,-218l0 -435 0 -143 0 -483 542 0c103,0 186,-31 247,-92 62,-62 92,-162 92,-301 0,-79 -11,-153 -33,-221 -22,-67 -45,-121 -69,-161l-781 0 0 -322c0,-183 -44,-308 -131,-375 -87,-68 -228,-101 -423,-101 -91,0 -178,7 -259,21 -81,14 -144,27 -188,39l0 739zm-4034 -155c433,0 780,89 1040,265 260,177 390,452 390,826l0 1335c0,103 -29,188 -86,253 -57,65 -126,122 -206,170 -127,75 -282,133 -465,173 -183,40 -391,60 -626,60 -417,0 -752,-80 -1004,-241 -252,-161 -378,-404 -378,-730 0,-274 82,-485 247,-632 165,-147 416,-238 754,-274l781 -83 0 -42c0,-115 -51,-198 -152,-247 -101,-50 -247,-75 -438,-75 -147,0 -293,16 -438,48 -145,32 -275,72 -390,119 -52,-36 -95,-90 -131,-164 -36,-73 -54,-150 -54,-229 0,-191 101,-326 304,-405 115,-44 251,-76 408,-95 157,-20 305,-30 444,-30zm3088 1413l0 530 0 1037c-44,12 -106,24 -188,36 -81,12 -170,18 -265,18 -195,0 -337,-34 -426,-101 -89,-68 -134,-193 -134,-375l0 -614 0 -530 0 -1281c44,-12 106,-24 188,-36 81,-12 170,-18 265,-18 199,0 342,33 429,98 87,65 131,192 131,378l0 858zm3277 -2128c0,-151 52,-278 155,-381 103,-103 236,-155 399,-155 163,0 296,52 399,155 103,103 155,230 155,381 0,147 -52,273 -155,378 -103,105 -236,158 -399,158 -163,0 -296,-53 -399,-158 -103,-105 -155,-231 -155,-378zm1061 2128l0 530 0 1037c-44,12 -106,24 -188,36 -81,12 -170,18 -265,18 -195,0 -337,-34 -426,-101 -89,-68 -134,-193 -134,-375l0 -614 0 -530 0 -1281c44,-12 106,-24 188,-36 81,-12 170,-18 265,-18 199,0 342,33 429,98 87,66 131,192 131,378l0 858zm13108 3453l-520 0c-9,-16 -18,-36 -26,-60 -8,-24 -12,-51 -12,-79 0,-50 12,-87 35,-110 24,-23 55,-34 95,-34l520 0c8,14 16,34 25,59 9,25 13,51 13,78 0,50 -12,87 -37,111 -24,24 -56,35 -93,35zm-1993 -539l0 130 556 0c9,16 18,35 26,59 8,24 12,50 12,78 0,50 -11,87 -34,111 -23,24 -53,35 -91,35l-468 0 0 158 0 149 634 0c9,14 18,34 26,59 8,25 12,52 12,80 0,50 -11,87 -34,111 -23,24 -53,35 -91,35l-700 0 -5 0c-58,0 -105,-17 -139,-52 -35,-35 -52,-81 -52,-139l0 -243 0 -572 0 -239c0,-60 17,-107 52,-141 35,-34 81,-51 139,-51l5 0 775 0c11,14 20,33 27,57 7,24 11,50 11,78 0,50 -11,88 -33,112 -22,24 -53,37 -92,37l-534 0 0 147zm-1407 1042c-129,0 -240,-23 -332,-70 -92,-46 -163,-112 -213,-195 -50,-84 -74,-181 -74,-293l0 -85 0 -71 0 -764c17,-3 42,-7 73,-12 32,-5 63,-7 95,-7 68,0 117,12 148,35 31,24 46,69 46,135l0 612 0 71 0 76c0,87 24,154 72,202 48,48 110,72 186,72 76,0 137,-24 186,-72 48,-48 72,-115 72,-202l0 -71 0 -76 0 -764c17,-3 42,-7 74,-12 32,-5 63,-7 93,-7 68,0 117,12 148,35 31,24 46,69 46,135l0 612 0 76 0 80c0,112 -24,210 -73,293 -49,84 -120,149 -213,195 -93,47 -204,70 -333,70zm-1769 -801l154 0c79,0 142,-18 190,-53 48,-35 72,-88 72,-157 0,-68 -23,-119 -69,-155 -46,-35 -116,-53 -210,-53 -27,0 -51,1 -73,2 -22,2 -43,5 -64,9l0 407zm176 279l-174 0 0 480c-14,5 -37,9 -69,13 -32,4 -64,6 -97,6 -71,0 -121,-13 -150,-38 -29,-25 -44,-69 -44,-132l0 -329 0 -135 0 -690c0,-30 9,-54 26,-71 17,-17 40,-31 69,-40 52,-19 113,-32 183,-40 70,-8 143,-12 219,-12 213,0 373,45 480,134 107,89 161,210 161,363 0,95 -26,179 -77,254 -48,70 -113,126 -194,167 15,20 30,39 45,59 39,49 76,96 111,142 35,46 67,88 96,126 28,39 51,71 69,98 -14,47 -39,84 -76,110 -36,26 -77,39 -123,39 -58,0 -103,-13 -134,-39 -31,-26 -60,-60 -86,-103l-235 -362zm-1628 -950l336 0 395 0c9,14 18,34 26,59 8,25 12,52 12,80 0,50 -11,88 -34,112 -23,24 -54,37 -93,37l-296 0 0 1142c-16,5 -39,9 -71,13 -32,4 -64,6 -97,6 -71,0 -121,-13 -150,-38 -29,-25 -44,-69 -44,-132l0 -990 -376 0c-11,-14 -20,-34 -27,-59 -7,-25 -11,-52 -11,-80 0,-52 11,-90 34,-113 23,-24 53,-35 91,-35l305 0zm-2435 663l606 -83c11,-74 -2,-136 -39,-186 -37,-50 -99,-74 -185,-74 -88,0 -168,32 -240,95 -67,59 -114,142 -142,248zm-22 177c2,80 25,142 70,186 56,56 139,84 249,84 66,0 129,-10 188,-31 59,-20 108,-43 146,-66 17,11 29,26 37,45 8,19 9,39 5,61 -7,35 -31,66 -72,95 -41,28 -92,50 -155,66 -62,16 -131,24 -205,24 -121,0 -223,-22 -305,-67 -82,-45 -139,-112 -170,-201 -32,-89 -34,-198 -6,-327 20,-93 51,-175 94,-247 43,-72 94,-132 153,-181 59,-49 125,-86 196,-111 72,-25 145,-38 221,-38 99,0 183,21 250,63 68,42 115,100 142,174 27,74 30,158 10,253 -8,39 -24,68 -47,86 -23,18 -52,30 -88,34l-714 99zm-1243 -335l-32 151 -129 610c-10,3 -26,7 -47,12 -22,5 -44,7 -68,7 -44,0 -75,-9 -93,-26 -18,-17 -22,-46 -14,-85l84 -397 19 -92 6 -29 26 -125c15,-71 5,-123 -29,-155 -34,-32 -84,-48 -148,-48 -44,0 -88,7 -131,21 -43,14 -80,30 -110,47l-55 260 -129 610c-12,3 -28,7 -49,12 -21,5 -43,7 -67,7 -44,0 -75,-9 -94,-26 -18,-17 -23,-46 -15,-85l84 -397 81 -385c7,-35 21,-64 41,-87 20,-24 49,-46 86,-66 50,-30 112,-55 186,-76 74,-20 146,-31 217,-31 79,0 147,12 205,37 50,21 89,50 116,86 45,-29 94,-55 150,-78 73,-30 153,-45 241,-45 84,0 155,14 215,41 60,28 102,70 127,128 25,58 28,130 9,219l-29 137 -129 610c-10,3 -26,7 -47,12 -22,5 -43,7 -65,7 -46,0 -77,-9 -95,-26 -18,-17 -22,-46 -14,-85l84 -397 19 -92 6 -29 26 -125c15,-71 6,-123 -26,-155 -33,-32 -82,-48 -148,-48 -49,0 -98,10 -147,31 -39,16 -77,37 -111,63 1,26 -2,54 -8,84zm-1353 213c-25,118 -70,221 -134,310 -64,88 -143,156 -237,204 -94,48 -197,72 -311,72 -113,0 -207,-24 -280,-72 -73,-48 -124,-116 -151,-203 -27,-87 -28,-191 -3,-311 25,-120 70,-223 135,-311 65,-87 145,-155 239,-203 94,-48 197,-72 307,-72 112,0 205,24 278,72 73,48 124,116 152,203 28,87 29,191 4,311zm-475 -390c-95,0 -177,35 -248,104 -71,69 -119,165 -144,286 -26,123 -19,219 21,287 40,69 109,103 206,103 98,0 181,-35 250,-104 69,-69 116,-165 142,-286 26,-121 18,-217 -22,-286 -40,-69 -109,-104 -205,-104zm-1176 2c-99,0 -190,34 -272,100 -82,67 -136,164 -163,290 -26,124 -14,220 38,286 51,66 129,99 233,99 61,0 115,-8 161,-25 46,-17 87,-35 123,-56 18,13 31,28 40,45 9,17 11,38 6,61 -10,49 -51,89 -123,122 -71,32 -158,48 -261,48 -115,0 -212,-21 -291,-64 -79,-43 -135,-107 -166,-194 -31,-87 -33,-195 -6,-324 28,-131 77,-240 147,-326 70,-87 154,-152 252,-196 98,-44 199,-66 305,-66 101,0 179,18 236,53 56,35 79,77 70,124 -5,22 -15,42 -30,59 -15,17 -33,32 -53,43 -28,-22 -61,-41 -99,-57 -38,-16 -86,-24 -146,-24zm-2538 -32l-14 0c-16,50 -34,106 -56,168 -21,61 -43,126 -65,193 -19,59 -38,118 -56,176l350 0c-18,-66 -36,-130 -55,-191 -20,-66 -39,-129 -57,-188 -17,-59 -33,-112 -47,-157zm-254 816c-5,17 -10,34 -14,52 -9,33 -18,65 -27,97 -9,32 -18,61 -26,90 -8,28 -16,55 -24,80 -17,5 -37,10 -59,15 -22,6 -48,8 -78,8 -66,0 -117,-12 -151,-35 -35,-24 -52,-58 -52,-104 0,-19 3,-39 8,-59 5,-20 12,-44 20,-71 14,-52 34,-117 60,-196 26,-79 54,-164 85,-256 31,-92 62,-183 95,-273 32,-90 62,-173 90,-248 28,-76 50,-135 67,-177 22,-14 57,-27 105,-39 48,-12 96,-18 143,-18 68,0 128,10 182,30 54,20 87,51 102,93 30,84 63,180 98,290 35,110 71,224 108,344 36,120 71,236 105,349 34,113 63,214 89,304 -17,19 -43,35 -76,48 -33,13 -73,20 -118,20 -65,0 -110,-12 -137,-35 -27,-24 -47,-59 -61,-106l-57 -201 -475 0zm-1399 -683l0 130 556 0c9,16 18,35 26,59 8,24 12,50 12,78 0,50 -11,87 -34,111 -23,24 -53,35 -91,35l-468 0 0 158 0 149 634 0c9,14 18,34 26,59 8,25 12,52 12,80 0,50 -11,87 -34,111 -23,24 -53,35 -91,35l-700 0 -5 0c-58,0 -105,-17 -139,-52 -35,-35 -52,-81 -52,-139l0 -243 0 -572 0 -239c0,-60 17,-107 52,-141 35,-34 81,-51 139,-51l5 0 775 0c11,14 20,33 27,57 7,24 11,50 11,78 0,50 -11,88 -33,112 -22,24 -53,37 -92,37l-534 0 0 147zm-1093 286c0,151 -37,266 -112,343 -75,77 -175,116 -299,116 -27,0 -55,-1 -85,-4 -30,-2 -57,-6 -80,-11l0 -896c27,-3 53,-6 79,-8 26,-2 53,-4 82,-4 82,0 154,17 216,51 62,34 111,85 147,152 35,68 53,154 53,260zm371 -7c0,-169 -34,-308 -102,-418 -68,-110 -162,-193 -282,-247 -121,-54 -262,-82 -424,-82 -60,0 -126,3 -199,9 -73,6 -140,20 -203,40 -28,11 -51,25 -69,41 -17,17 -26,41 -26,72l0 1130c0,76 41,128 123,158 61,22 130,37 206,44 76,7 139,11 191,11 158,0 295,-28 412,-84 117,-56 209,-140 274,-252 65,-112 98,-253 98,-423zm-1752 -277l0 454 0 544c-14,5 -37,9 -69,13 -32,4 -64,6 -97,6 -71,0 -121,-13 -150,-38 -29,-25 -44,-69 -44,-132l0 -392 0 -454 0 -437c16,-3 40,-7 72,-12 32,-5 64,-7 96,-7 68,0 117,12 147,35 30,24 45,69 45,135l0 286zm-1322 537l-520 0c-9,-16 -18,-36 -26,-60 -8,-24 -12,-51 -12,-79 0,-50 12,-87 35,-110 24,-23 55,-34 95,-34l520 0c8,14 16,34 25,59 9,25 13,51 13,78 0,50 -12,87 -37,111 -24,24 -56,35 -93,35zm-1339 -6110c-28,-24 -73,-35 -136,-35 -29,0 -59,2 -89,7l-67 12 0 436 0 5633 0 391c0,63 13,107 40,132 27,25 73,38 139,38 31,0 61,-2 90,-6 29,-4 50,-8 63,-13l0 -542 0 -5633 0 -285c0,-66 -14,-111 -42,-134z"/>
  <path class="fil2" d="M20960 2813c109,0 188,-20 235,-59 48,-39 71,-87 71,-141 0,-51 -19,-92 -56,-123 -37,-31 -93,-58 -165,-80l-161 -52c-109,-36 -206,-77 -290,-121 -84,-45 -149,-102 -194,-173 -46,-71 -68,-161 -68,-270 0,-168 64,-302 191,-401 127,-99 305,-149 531,-149 115,0 218,11 308,33 90,22 161,55 212,99 52,43 77,97 77,159 0,47 -11,87 -32,120 -21,33 -48,62 -80,87 -47,-32 -108,-60 -185,-83 -77,-23 -162,-35 -255,-35 -97,0 -170,16 -219,47 -49,31 -73,72 -73,123 0,40 16,73 49,99 32,25 81,48 146,68l167 52c184,57 326,132 425,226 99,94 149,220 149,378 0,170 -66,308 -197,414 -132,106 -322,159 -571,159 -123,0 -234,-13 -331,-39 -97,-26 -175,-65 -232,-115 -58,-51 -87,-109 -87,-176 0,-53 16,-98 47,-135 31,-37 66,-65 105,-83 55,45 123,85 205,120 82,35 175,53 278,53zm10123 -598c0,210 -41,388 -123,533 -82,145 -194,254 -337,329 -143,75 -304,112 -484,112 -180,0 -341,-37 -483,-112 -142,-75 -253,-185 -334,-329 -81,-145 -121,-322 -121,-533 0,-210 41,-388 124,-533 83,-145 195,-254 337,-328 142,-74 300,-111 477,-111 178,0 338,37 481,111 143,74 255,183 338,328 83,145 124,322 124,533zm-477 0c0,-194 -42,-342 -126,-443 -84,-101 -198,-152 -341,-152 -138,0 -249,50 -334,150 -85,100 -127,248 -127,445 0,198 42,348 126,448 84,100 197,150 338,150 142,0 254,-50 338,-150 84,-100 126,-249 126,-448zm-1885 -361l0 583 0 698c-18,6 -48,12 -88,17 -40,5 -82,8 -124,8 -91,0 -155,-16 -193,-49 -37,-32 -56,-89 -56,-170l0 -504 0 -583 0 -562c20,-4 51,-9 93,-15 41,-6 82,-9 123,-9 87,0 150,15 188,46 38,30 58,88 58,173l0 367zm-1415 364c0,194 -48,341 -144,440 -96,99 -224,149 -384,149 -34,0 -71,-2 -109,-5 -38,-3 -73,-8 -103,-14l0 -1150c34,-4 68,-8 102,-11 33,-3 68,-5 105,-5 105,0 198,22 278,65 80,43 143,109 188,196 46,87 68,198 68,334zm477 -9c0,-217 -44,-396 -131,-537 -87,-142 -208,-247 -363,-317 -155,-70 -336,-105 -545,-105 -77,0 -162,4 -255,12 -93,8 -180,25 -261,52 -36,14 -66,32 -88,53 -22,21 -33,52 -33,93l0 1451c0,97 53,165 158,203 79,28 167,47 264,56 97,9 179,14 246,14 202,0 379,-36 530,-108 151,-72 268,-180 352,-323 84,-144 126,-325 126,-543zm-3033 980c-166,0 -308,-30 -426,-90 -118,-60 -209,-143 -273,-250 -64,-107 -96,-233 -96,-376l0 -109 0 -91 0 -980c22,-4 54,-9 94,-15 40,-6 81,-9 121,-9 87,0 150,15 190,46 39,30 59,88 59,173l0 786 0 91 0 97c0,111 31,198 93,260 62,62 141,93 238,93 97,0 177,-31 238,-93 62,-62 93,-148 93,-260l0 -91 0 -97 0 -980c22,-4 54,-9 96,-15 41,-6 81,-9 120,-9 87,0 150,15 190,46 39,30 59,88 59,173l0 786 0 97 0 103c0,144 -31,269 -94,376 -63,107 -154,191 -273,250 -119,60 -262,90 -428,90zm-2192 -1891l431 0 507 0c12,18 23,44 33,76 10,32 15,67 15,103 0,65 -15,113 -44,144 -29,31 -69,47 -120,47l-379 0 0 1466c-20,6 -51,12 -91,17 -40,5 -82,8 -124,8 -91,0 -155,-16 -193,-49 -37,-32 -56,-89 -56,-170l0 -1272 -483 0c-14,-18 -26,-43 -35,-76 -9,-32 -14,-67 -14,-103 0,-67 15,-115 44,-146 29,-30 68,-46 117,-46l392 0z"/>
 </g>
</svg>
