<?xml version="1.0" encoding="UTF-8"?>
<!DOCTYPE svg PUBLIC "-//W3C//DTD SVG 1.1//EN" "http://www.w3.org/Graphics/SVG/1.1/DTD/svg11.dtd">
<!-- Creator: CorelDRAW 2017 -->
<svg xmlns="http://www.w3.org/2000/svg" xml:space="preserve" width="7.19189cm" height="2.59209cm" version="1.1" style="shape-rendering:geometricPrecision; text-rendering:geometricPrecision; image-rendering:optimizeQuality; fill-rule:evenodd; clip-rule:evenodd"
viewBox="0 0 209193 75397"
 xmlns:xlink="http://www.w3.org/1999/xlink">
 <defs>
  <style type="text/css">
   <![CDATA[
    .fil2 {fill:#606062;fill-rule:nonzero}
    .fil0 {fill:#005F7B;fill-rule:nonzero}
    .fil1 {fill:#E26012;fill-rule:nonzero}
   ]]>
  </style>
 </defs>
 <g id="Layer_x0020_1">
  <metadata id="CorelCorpID_0Corel-Layer"/>
  <g id="_1250275084976">
   <path class="fil0" d="M86062 52079l-39 -23530c5424,36 11431,-542 16116,1399 9555,3958 10059,16855 137,20678 -4893,1886 -10769,1438 -16214,1453zm16 -46831c8771,-483 17774,-139 17982,9137 208,9273 -11311,9572 -18055,8979l73 -18116zm-12939 52354c3505,113 19814,144 22892,-43 7089,-433 13108,-2002 17483,-5632 3785,-3141 7056,-10344 4784,-17142 -1944,-5815 -6416,-8274 -12364,-10679 2641,-1641 4794,-2305 6434,-6084 1352,-3113 1805,-7565 122,-10668 -2819,-5198 -10072,-7298 -17862,-7297 -6958,0 -15417,-144 -22193,26 5476,4111 4798,5955 4798,11574l0 33474c0,4498 567,6856 -2158,10368 -457,588 -1797,1732 -1937,2104z"/>
   <path class="fil1" d="M1 1106l0 7641c-1,1520 171,1496 874,2363 495,611 976,1204 1447,1823l17647 22290c825,1012 2241,3084 2989,3661l5903 -4849 -4730 -6820c-4134,-6197 -7222,-14408 -7294,-22106 -33,-3542 590,-3386 825,-5030 -5191,-135 -11075,6 -16440,-33 -1280,-10 -1220,-118 -1220,1061z"/>
   <path class="fil1" d="M57226 40464c297,-2546 9,-16531 54,-21356 13,-1404 -129,-1465 -791,-2224 -3836,-4395 -11789,-6945 -17083,-1609 -4666,4703 -2362,13484 1265,18233 2474,3241 9575,9623 16556,6956z"/>
   <path class="fil1" d="M32623 23754c1176,-9555 6824,-15820 15583,-17479 1497,-283 3512,-344 5007,-63 2190,411 3447,1287 4025,1351l31 -7439 -31330 -64c-3888,8602 5253,23376 6683,23694z"/>
   <path class="fil1" d="M25459 42039c411,825 5333,6884 6300,8075 2149,2647 5240,4316 9992,4363 -517,544 -3347,2796 -3494,3127l18987 -42 3 -13232c-1600,165 -6693,4482 -15252,1135 -5090,-1990 -8819,-7259 -10533,-8461 -925,618 -5660,4484 -6004,5034z"/>
   <path class="fil1" d="M0 57490c884,2 3561,-2536 4370,-3209l12569 -10424c-192,-634 -10786,-13888 -12631,-16183 -992,-1234 -3530,-4687 -4277,-5217l-31 35033z"/>
   <path class="fil1" d="M6758 57566l20318 24c-264,-1406 -6426,-9588 -7558,-10610 -843,305 -7837,6336 -9623,7760 -557,444 -1038,874 -1586,1320 -321,262 -491,381 -807,637l-745 869z"/>
   <path class="fil2" d="M82 72818l0 -8792 1735 0 2068 6224c191,579 330,1013 417,1301 100,-319 257,-790 468,-1410l2105 -6115 1549 0 0 8792 -1111 0 0 -7355 -2553 7355 -1042 0 -2525 -7491 0 7491 -1112 0zm14391 -2063l1112 147c-173,649 -497,1154 -969,1513 -473,358 -1075,538 -1810,538 -924,0 -1657,-286 -2199,-859 -542,-571 -812,-1376 -812,-2409 0,-1068 273,-1899 821,-2488 548,-591 1258,-887 2132,-887 845,0 1536,289 2071,868 535,579 804,1394 804,2444 0,63 -2,159 -6,286l-4722 0c41,698 236,1234 590,1605 352,370 794,556 1321,556 393,0 729,-104 1006,-313 279,-209 499,-542 661,-1001zm-3518 -1732l3531 0c-47,-536 -183,-937 -405,-1205 -340,-415 -784,-624 -1328,-624 -493,0 -906,166 -1242,498 -334,332 -519,775 -556,1332zm5963 3794l0 -8792 1075 0 0 8792 -1075 0zm6880 -798c-399,342 -784,581 -1152,722 -369,141 -764,211 -1187,211 -696,0 -1232,-170 -1606,-511 -374,-340 -562,-776 -562,-1306 0,-311 71,-596 212,-853 142,-258 328,-462 556,-618 230,-156 487,-274 774,-354 212,-55 531,-109 957,-162 867,-102 1509,-227 1918,-370 4,-147 6,-241 6,-280 0,-438 -102,-747 -306,-927 -275,-243 -684,-364 -1225,-364 -507,0 -882,90 -1122,268 -242,178 -419,493 -535,947l-1050 -147c95,-452 252,-819 472,-1097 220,-279 538,-491 953,-643 413,-150 896,-226 1442,-226 542,0 983,64 1323,193 338,129 589,289 747,483 159,194 271,440 336,737 35,184 53,516 53,992l0 1433c0,1001 22,1633 67,1901 43,268 132,524 262,770l-1124 0c-108,-227 -177,-493 -208,-798zm-86 -2394c-391,160 -977,294 -1759,405 -444,63 -757,135 -941,215 -183,79 -324,196 -424,348 -100,153 -151,323 -151,511 0,284 108,524 326,714 218,190 535,287 953,287 413,0 782,-90 1106,-273 322,-180 560,-428 711,-741 116,-243 173,-601 173,-1074l6 -393zm2689 5642l-122 -999c236,63 440,96 615,96 240,0 432,-41 574,-121 145,-80 263,-193 354,-336 67,-108 177,-376 328,-806 20,-60 51,-147 96,-264l-2407 -6393 1148 0 1323 3680c173,465 326,956 462,1471 124,-485 271,-964 442,-1435l1352 -3716 1073 0 -2396 6484c-259,698 -460,1177 -605,1440 -191,354 -411,614 -658,780 -248,166 -544,248 -886,248 -207,0 -440,-43 -694,-129zm10298 -3248c-399,342 -784,581 -1152,722 -369,141 -764,211 -1187,211 -696,0 -1232,-170 -1606,-511 -374,-340 -562,-776 -562,-1306 0,-311 71,-596 212,-853 142,-258 328,-462 556,-618 230,-156 487,-274 774,-354 212,-55 531,-109 957,-162 867,-102 1508,-227 1918,-370 4,-147 6,-241 6,-280 0,-438 -102,-747 -305,-927 -275,-243 -684,-364 -1226,-364 -507,0 -881,90 -1122,268 -242,178 -419,493 -535,947l-1050 -147c95,-452 252,-819 472,-1097 220,-279 538,-491 953,-643 413,-150 896,-226 1442,-226 542,0 983,64 1323,193 338,129 588,289 747,483 159,194 271,440 336,737 35,184 53,516 53,992l0 1433c0,1001 22,1633 67,1901 43,268 132,524 262,770l-1124 0c-108,-227 -177,-493 -208,-798zm-86 -2394c-391,160 -977,294 -1759,405 -444,63 -757,135 -941,215 -183,79 -324,196 -424,348 -100,153 -151,323 -151,511 0,284 108,524 326,714 218,190 536,287 953,287 413,0 782,-90 1106,-273 322,-180 560,-428 711,-741 116,-243 173,-601 173,-1074l6 -393zm2739 3192l0 -6373 965 0 0 905c464,-694 1136,-1040 2014,-1040 383,0 733,70 1053,207 320,137 560,319 718,542 159,223 271,489 334,796 39,201 59,551 59,1050l0 3913 -1075 0 0 -3872c0,-440 -41,-770 -124,-987 -83,-216 -232,-391 -444,-522 -212,-129 -462,-194 -747,-194 -456,0 -849,145 -1181,438 -332,291 -497,845 -497,1660l0 3477 -1075 0zm6794 -7564l0 -1228 1075 0 0 1228 -1075 0zm0 7564l0 -6373 1075 0 0 6373 -1075 0zm6230 0l0 -8792 1189 0 4589 6901 0 -6901 1111 0 0 8792 -1189 0 -4589 -6901 0 6901 -1112 0zm13024 -2063l1112 147c-173,649 -497,1154 -969,1513 -472,358 -1075,538 -1810,538 -924,0 -1657,-286 -2199,-859 -542,-571 -812,-1376 -812,-2409 0,-1068 273,-1899 821,-2488 548,-591 1258,-887 2132,-887 845,0 1535,289 2071,868 535,579 804,1394 804,2444 0,63 -2,159 -6,286l-4722 0c41,698 236,1234 590,1605 352,370 794,556 1321,556 393,0 729,-104 1006,-313 279,-209 499,-542 662,-1001zm-3518 -1732l3531 0c-47,-536 -183,-937 -405,-1205 -340,-415 -784,-624 -1327,-624 -493,0 -906,166 -1242,498 -334,332 -519,775 -556,1332zm5790 4323l1038 147c43,323 165,558 364,708 267,199 631,299 1093,299 497,0 882,-100 1152,-299 271,-199 454,-479 550,-837 55,-219 81,-680 77,-1382 -470,557 -1055,835 -1755,835 -871,0 -1547,-315 -2024,-948 -478,-630 -717,-1387 -717,-2269 0,-608 110,-1168 328,-1682 218,-514 535,-909 951,-1189 415,-280 904,-420 1466,-420 747,0 1364,307 1849,921l0 -786 989 0 0 5503c0,992 -100,1694 -301,2108 -199,414 -519,741 -953,981 -436,240 -971,360 -1606,360 -755,0 -1364,-170 -1828,-511 -466,-340 -690,-853 -674,-1539zm880 -3823c0,833 165,1441 495,1823 332,382 745,575 1242,575 495,0 908,-191 1244,-571 334,-380 501,-978 501,-1793 0,-777 -173,-1365 -517,-1759 -344,-395 -759,-592 -1244,-592 -478,0 -884,194 -1220,583 -334,389 -501,966 -501,1733zm10437 1232l1112 147c-173,649 -497,1154 -969,1513 -472,358 -1075,538 -1810,538 -924,0 -1657,-286 -2199,-859 -542,-571 -812,-1376 -812,-2409 0,-1068 273,-1899 821,-2488 548,-591 1258,-887 2132,-887 845,0 1536,289 2071,868 535,579 804,1394 804,2444 0,63 -2,159 -6,286l-4722 0c41,698 236,1234 590,1605 352,370 794,556 1321,556 393,0 729,-104 1006,-313 279,-209 499,-542 661,-1001zm-3518 -1732l3531 0c-47,-536 -183,-937 -405,-1205 -340,-415 -784,-624 -1327,-624 -493,0 -906,166 -1242,498 -334,332 -519,775 -556,1332zm5976 3794l0 -6373 965 0 0 976c247,-452 475,-751 684,-894 210,-145 440,-217 690,-217 362,0 731,115 1106,342l-383 997c-261,-147 -521,-221 -782,-221 -234,0 -444,71 -629,213 -185,141 -318,338 -397,590 -120,383 -179,802 -179,1259l0 3330 -1075 0zm4080 -7564l0 -1228 1075 0 0 1228 -1075 0zm0 7564l0 -6373 1075 0 0 6373 -1075 0zm2995 0l0 -1228 1221 0 0 1228c0,452 -79,819 -240,1097 -159,278 -413,495 -762,647l-293 -467c228,-100 395,-248 501,-440 108,-195 169,-473 181,-837l-609 0zm6593 0l0 -8792 1161 0 0 4359 4345 -4359 1568 0 -3669 3565 3828 5227 -1527 0 -3113 -4437 -1431 1391 0 3045 -1161 0zm12387 -2063l1112 147c-173,649 -497,1154 -969,1513 -472,358 -1075,538 -1810,538 -924,0 -1657,-286 -2199,-859 -542,-571 -812,-1376 -812,-2409 0,-1068 273,-1899 821,-2488 548,-591 1258,-887 2132,-887 845,0 1535,289 2071,868 535,579 804,1394 804,2444 0,63 -2,159 -6,286l-4721 0c40,698 236,1234 590,1605 352,370 794,556 1321,556 393,0 729,-104 1006,-313 279,-209 499,-542 662,-1001zm-3518 -1732l3531 0c-47,-536 -183,-937 -405,-1205 -340,-415 -784,-624 -1327,-624 -493,0 -906,166 -1242,498 -334,332 -519,775 -556,1332zm6977 3794l-1002 0 0 -8792 1075 0 0 3137c454,-569 1032,-853 1737,-853 389,0 759,78 1107,236 348,158 634,380 860,665 224,287 401,631 527,1033 128,401 192,833 192,1292 0,1089 -269,1932 -805,2525 -537,596 -1181,892 -1932,892 -747,0 -1333,-313 -1759,-937l0 802zm-12 -3234c0,761 104,1312 309,1652 338,555 794,833 1370,833 470,0 876,-204 1216,-613 342,-409 513,-1020 513,-1830 0,-831 -163,-1443 -491,-1838 -328,-395 -725,-594 -1189,-594 -470,0 -876,205 -1216,614 -342,409 -513,1000 -513,1776zm9958 2435c-399,342 -784,581 -1152,722 -369,141 -764,211 -1187,211 -696,0 -1232,-170 -1606,-511 -374,-340 -562,-776 -562,-1306 0,-311 71,-596 212,-853 143,-258 328,-462 556,-618 230,-156 487,-274 774,-354 212,-55 531,-109 957,-162 867,-102 1509,-227 1918,-370 4,-147 6,-241 6,-280 0,-438 -102,-747 -306,-927 -275,-243 -684,-364 -1225,-364 -507,0 -882,90 -1122,268 -242,178 -419,493 -535,947l-1051 -147c96,-452 252,-819 472,-1097 220,-279 538,-491 953,-643 413,-150 896,-226 1442,-226 542,0 983,64 1323,193 338,129 589,289 747,483 159,194 271,440 336,737 35,184 53,516 53,992l0 1433c0,1001 22,1633 67,1901 43,268 132,524 262,770l-1124 0c-108,-227 -177,-493 -208,-798zm-85 -2394c-391,160 -977,294 -1759,405 -444,63 -757,135 -941,215 -183,79 -324,196 -424,348 -100,153 -151,323 -151,511 0,284 108,524 326,714 218,190 535,287 953,287 413,0 782,-90 1106,-273 322,-180 560,-428 711,-741 116,-243 173,-601 173,-1074l6 -393zm2738 3192l0 -6373 965 0 0 905c464,-694 1136,-1040 2014,-1040 383,0 733,70 1053,207 319,137 560,319 718,542 159,223 271,489 334,796 39,201 59,551 59,1050l0 3913 -1075 0 0 -3872c0,-440 -40,-770 -124,-987 -84,-216 -232,-391 -444,-522 -212,-129 -462,-194 -747,-194 -456,0 -849,145 -1181,438 -332,291 -497,845 -497,1660l0 3477 -1075 0zm6597 528l1038 147c43,323 165,558 364,708 267,199 631,299 1093,299 497,0 882,-100 1152,-299 271,-199 454,-479 550,-837 55,-219 81,-680 77,-1382 -470,557 -1055,835 -1755,835 -871,0 -1547,-315 -2024,-948 -478,-630 -717,-1387 -717,-2269 0,-608 110,-1168 328,-1682 218,-514 535,-909 951,-1189 415,-280 904,-420 1466,-420 747,0 1364,307 1849,921l0 -786 989 0 0 5503c0,992 -100,1694 -301,2108 -199,414 -519,741 -953,981 -436,240 -971,360 -1606,360 -755,0 -1364,-170 -1828,-511 -466,-340 -690,-853 -674,-1539zm880 -3823c0,833 165,1441 495,1823 332,382 745,575 1242,575 495,0 908,-191 1244,-571 334,-380 501,-978 501,-1793 0,-777 -173,-1365 -517,-1759 -344,-395 -759,-592 -1244,-592 -478,0 -884,194 -1220,583 -334,389 -501,966 -501,1733zm5915 3823l1038 147c43,323 165,558 364,708 267,199 631,299 1093,299 497,0 882,-100 1152,-299 271,-199 454,-479 550,-837 55,-219 81,-680 77,-1382 -471,557 -1055,835 -1755,835 -871,0 -1547,-315 -2024,-948 -478,-630 -717,-1387 -717,-2269 0,-608 110,-1168 328,-1682 218,-514 535,-909 951,-1189 415,-280 904,-420 1466,-420 747,0 1364,307 1848,921l0 -786 990 0 0 5503c0,992 -100,1694 -301,2108 -200,414 -519,741 -953,981 -436,240 -971,360 -1606,360 -755,0 -1364,-170 -1828,-511 -466,-340 -690,-853 -674,-1539zm880 -3823c0,833 165,1441 495,1823 332,382 745,575 1242,575 495,0 908,-191 1244,-571 334,-380 501,-978 501,-1793 0,-777 -173,-1365 -517,-1759 -344,-395 -759,-592 -1244,-592 -478,0 -884,194 -1220,583 -334,389 -501,966 -501,1733zm10253 2497c-399,342 -784,581 -1152,722 -369,141 -763,211 -1187,211 -696,0 -1232,-170 -1606,-511 -375,-340 -562,-776 -562,-1306 0,-311 71,-596 212,-853 143,-258 328,-462 556,-618 230,-156 487,-274 774,-354 212,-55 531,-109 957,-162 867,-102 1509,-227 1918,-370 4,-147 6,-241 6,-280 0,-438 -102,-747 -306,-927 -275,-243 -684,-364 -1226,-364 -507,0 -881,90 -1122,268 -243,178 -420,493 -535,947l-1051 -147c96,-452 252,-819 472,-1097 220,-279 537,-491 953,-643 413,-150 896,-226 1441,-226 542,0 984,64 1323,193 338,129 589,289 747,483 159,194 271,440 336,737 35,184 53,516 53,992l0 1433c0,1001 22,1633 67,1901 43,268 132,524 263,770l-1124 0c-108,-227 -177,-493 -208,-798zm-85 -2394c-391,160 -977,294 -1759,405 -444,63 -757,135 -940,215 -183,79 -324,196 -424,348 -100,153 -151,323 -151,511 0,284 108,524 325,714 218,190 536,287 953,287 413,0 782,-90 1106,-273 322,-180 560,-428 711,-741 116,-243 173,-601 173,-1074l6 -393zm6879 2394c-399,342 -784,581 -1152,722 -369,141 -763,211 -1187,211 -696,0 -1232,-170 -1606,-511 -375,-340 -562,-776 -562,-1306 0,-311 71,-596 212,-853 143,-258 328,-462 556,-618 230,-156 487,-274 774,-354 212,-55 531,-109 957,-162 867,-102 1508,-227 1918,-370 4,-147 6,-241 6,-280 0,-438 -102,-747 -306,-927 -275,-243 -684,-364 -1226,-364 -507,0 -881,90 -1122,268 -243,178 -420,493 -535,947l-1051 -147c96,-452 252,-819 472,-1097 220,-279 538,-491 953,-643 413,-150 896,-226 1442,-226 542,0 984,64 1323,193 338,129 589,289 747,483 159,194 271,440 336,737 35,184 53,516 53,992l0 1433c0,1001 22,1633 67,1901 43,268 132,524 263,770l-1124 0c-108,-227 -177,-493 -208,-798zm-85 -2394c-391,160 -977,294 -1759,405 -444,63 -757,135 -940,215 -183,79 -324,196 -424,348 -99,153 -150,323 -150,511 0,284 108,524 325,714 218,190 536,287 953,287 413,0 782,-90 1106,-273 322,-180 560,-428 711,-741 116,-243 173,-601 173,-1074l6 -393zm2738 3192l0 -6373 965 0 0 905c464,-694 1136,-1040 2014,-1040 383,0 733,70 1053,207 319,137 560,319 718,542 159,223 271,489 334,796 39,201 59,551 59,1050l0 3913 -1075 0 0 -3872c0,-440 -41,-770 -124,-987 -83,-216 -232,-391 -444,-522 -212,-129 -462,-194 -747,-194 -456,0 -849,145 -1181,438 -332,291 -497,845 -497,1660l0 3477 -1075 0zm10274 0l0 -8792 3282 0c668,0 1203,88 1609,266 403,178 719,452 947,823 230,368 344,755 344,1160 0,375 -102,729 -303,1060 -201,332 -507,599 -916,804 529,156 936,422 1219,798 285,375 428,819 428,1330 0,413 -88,796 -261,1150 -173,354 -387,626 -641,819 -255,190 -574,336 -957,434 -385,98 -855,147 -1413,147l-3337 0zm1161 -5096l1892 0c513,0 882,-35 1104,-102 295,-88 517,-235 666,-440 149,-204 224,-460 224,-770 0,-292 -70,-550 -210,-771 -138,-223 -338,-377 -597,-458 -259,-82 -702,-123 -1330,-123l-1749 0 0 2664zm0 4064l2179 0c375,0 637,-14 790,-43 265,-47 488,-127 668,-240 179,-113 326,-276 442,-491 116,-215 173,-462 173,-743 0,-330 -83,-614 -252,-858 -167,-243 -399,-413 -697,-511 -295,-98 -723,-147 -1278,-147l-2024 0 0 3033zm11044 233c-399,342 -784,581 -1152,722 -369,141 -763,211 -1187,211 -696,0 -1232,-170 -1606,-511 -375,-340 -562,-776 -562,-1306 0,-311 71,-596 212,-853 143,-258 328,-462 556,-618 230,-156 487,-274 774,-354 212,-55 531,-109 957,-162 867,-102 1508,-227 1918,-370 4,-147 6,-241 6,-280 0,-438 -102,-747 -306,-927 -275,-243 -684,-364 -1226,-364 -507,0 -881,90 -1122,268 -243,178 -420,493 -535,947l-1051 -147c96,-452 252,-819 472,-1097 220,-279 538,-491 953,-643 413,-150 896,-226 1442,-226 542,0 983,64 1323,193 338,129 588,289 747,483 159,194 271,440 336,737 35,184 53,516 53,992l0 1433c0,1001 22,1633 67,1901 43,268 132,524 263,770l-1124 0c-108,-227 -177,-493 -208,-798zm-85 -2394c-391,160 -977,294 -1759,405 -444,63 -757,135 -940,215 -183,79 -324,196 -424,348 -100,153 -151,323 -151,511 0,284 108,524 326,714 218,190 536,287 953,287 413,0 782,-90 1106,-273 322,-180 560,-428 711,-741 116,-243 173,-601 173,-1074l6 -393zm2738 3192l0 -6373 965 0 0 905c465,-694 1136,-1040 2014,-1040 382,0 733,70 1052,207 320,137 560,319 719,542 159,223 271,489 334,796 39,201 59,551 59,1050l0 3913 -1075 0 0 -3872c0,-440 -41,-770 -124,-987 -83,-216 -232,-391 -444,-522 -212,-129 -462,-194 -747,-194 -456,0 -849,145 -1181,438 -332,291 -497,845 -497,1660l0 3477 -1075 0zm6596 528l1039 147c42,323 165,558 364,708 266,199 631,299 1093,299 497,0 882,-100 1152,-299 271,-199 454,-479 550,-837 55,-219 81,-680 77,-1382 -470,557 -1055,835 -1755,835 -871,0 -1547,-315 -2024,-948 -478,-630 -717,-1387 -717,-2269 0,-608 110,-1168 328,-1682 218,-514 535,-909 951,-1189 415,-280 904,-420 1466,-420 747,0 1364,307 1849,921l0 -786 990 0 0 5503c0,992 -100,1694 -301,2108 -200,414 -519,741 -953,981 -436,240 -971,360 -1606,360 -755,0 -1364,-170 -1828,-511 -466,-340 -690,-853 -674,-1539zm880 -3823c0,833 165,1441 495,1823 332,382 745,575 1242,575 495,0 908,-191 1244,-571 334,-380 501,-978 501,-1793 0,-777 -173,-1365 -517,-1759 -344,-395 -759,-592 -1244,-592 -478,0 -884,194 -1220,583 -334,389 -501,966 -501,1733z"/>
   <path class="fil0" d="M125508 58293l15278 -226c-2216,-2106 -3820,-3177 -4359,-7470 -332,-2643 -168,-33235 -109,-36698l18664 24954c2981,4145 5343,7012 8277,10791 418,539 862,939 1290,1430 2379,2733 9039,8833 11962,10126 230,-16140 4,-33224 4,-49542 0,-2686 -138,-4970 829,-7282 937,-2243 2302,-2907 3936,-4287l-15266 -27c2043,1733 3844,3658 4123,7587 265,3730 52,8205 52,12015 0,7857 238,16093 -24,23903 -819,-550 -15604,-21211 -15983,-21728l-11858 -16279c-1338,-1819 -2560,-3636 -3970,-5466l-11876 -37c331,630 1230,1618 1703,2258 2394,3243 2012,6102 2010,10435l0 33474c3,5901 -135,7909 -4090,11428 -66,59 -259,240 -298,282 -264,283 -52,-11 -295,360z"/>
   <path class="fil0" d="M190499 58306l17486 -265c-626,-734 -762,-592 -1865,-1994 -2637,-3353 -2151,-6242 -2151,-10552l0 -33838c0,-3926 -27,-6421 2900,-9616 711,-777 1638,-1243 2324,-1975l-18100 -8c1186,1837 2535,2072 3485,4623 792,2125 568,5475 568,7886l0 33474c0,5814 430,8042 -4028,11647l-619 618z"/>
   <path class="fil2" d="M195824 70915l1063 -172c59,428 226,755 499,985 273,227 656,341 1144,341 495,0 861,-100 1102,-303 238,-201 358,-438 358,-710 0,-243 -108,-436 -322,-575 -151,-96 -517,-217 -1100,-367 -786,-199 -1330,-370 -1635,-515 -303,-147 -533,-348 -690,-606 -157,-256 -236,-540 -236,-851 0,-284 65,-547 194,-788 130,-242 305,-442 527,-602 167,-123 395,-227 682,-313 289,-86 597,-129 926,-129 497,0 933,72 1307,217 377,143 654,340 833,585 177,248 301,577 369,990l-1051 147c-47,-331 -185,-592 -413,-778 -228,-186 -550,-278 -967,-278 -491,0 -843,82 -1053,245 -209,164 -315,356 -315,575 0,139 42,266 130,379 87,114 224,211 411,286 108,41 421,133 947,277 757,202 1287,370 1588,499 301,129 538,320 709,565 173,248 259,555 259,924 0,358 -104,695 -314,1013 -210,317 -511,563 -904,737 -395,174 -841,260 -1338,260 -823,0 -1452,-172 -1883,-514 -431,-344 -706,-851 -827,-1525zm10677 1105c-399,342 -784,581 -1152,722 -369,141 -764,211 -1187,211 -696,0 -1232,-170 -1606,-511 -375,-340 -562,-776 -562,-1306 0,-311 71,-596 212,-853 143,-258 328,-462 556,-618 230,-156 487,-274 774,-354 212,-55 531,-109 957,-162 867,-102 1508,-227 1918,-370 4,-147 6,-241 6,-280 0,-438 -102,-747 -305,-927 -275,-243 -684,-364 -1226,-364 -507,0 -881,90 -1122,268 -243,178 -420,493 -535,947l-1051 -147c96,-452 252,-819 472,-1097 220,-279 538,-491 953,-643 413,-150 896,-226 1442,-226 542,0 983,64 1323,193 338,129 588,289 747,483 159,194 271,440 336,737 35,184 53,516 53,992l0 1433c0,1001 22,1633 67,1901 43,268 132,524 263,770l-1124 0c-108,-227 -177,-493 -208,-798zm-86 -2394c-391,160 -977,294 -1759,405 -444,63 -757,135 -940,215 -183,79 -324,196 -424,348 -100,153 -151,323 -151,511 0,284 108,524 326,714 218,190 536,287 953,287 413,0 782,-90 1106,-273 322,-180 560,-428 711,-741 116,-243 173,-601 173,-1074l6 -393z"/>
  </g>
 </g>
</svg>
